<svg id="Capa_1" enable-background="new 0 0 512 512" height="512" viewBox="0 0 512 512" width="512" xmlns="http://www.w3.org/2000/svg"><g><g><g><g><g><g><g><circle cx="256" cy="256" fill="#ffce00" r="256"/></g></g></g></g></g></g><path d="m512 256c0-4.391-.111-8.757-.329-13.094l-103.094-103.094-289.484 250.479 121.237 121.237c5.183.313 10.408.472 15.67.472 141.385 0 256-114.615 256-256z" fill="#ffa300"/><g><g><g><g><g><g><path d="m432.574 181.034c9.789 23.029 15.206 48.365 15.206 74.966 0 105.917-85.862 191.779-191.779 191.779-63.181 0-119.227-30.553-154.167-77.69l-28.711-56.172c-5.782-18.274-8.901-37.731-8.901-57.917 0-105.917 85.862-191.779 191.779-191.779 57.218 0 108.583 25.058 143.721 64.798z" fill="#7584f2"/></g></g></g></g></g></g><g><g><g><g><g><g><path d="m447.779 256c0-26.601-5.416-51.938-15.206-74.966l-32.852-52.015c-35.113-39.712-86.431-64.761-143.601-64.796v383.555c105.862-.066 191.659-85.901 191.659-191.778z" fill="#606aea"/></g></g></g></g></g></g><g><path d="m190.307 196.762-117.178 117.178c6.459 20.404 16.238 39.332 28.704 56.149l130.9-130.9c11.715-11.716 11.715-30.711 0-42.426-11.715-11.716-30.71-11.716-42.426-.001z" fill="#bfe1ff"/></g><g><path d="m399.721 129.019-116.551 116.551-49.622-49.622c-11.716-11.716-30.711-11.716-42.427 0-11.715 11.716-11.715 30.711 0 42.426l70.835 70.835c5.626 5.626 13.257 8.787 21.213 8.787s15.587-3.161 21.213-8.787l128.186-128.186c-8.131-19.125-19.28-36.659-32.847-52.004z" fill="#fff"/></g><g><path d="m399.721 129.019-116.551 116.551-27.049-27.049v84.853l5.837 5.837c5.626 5.626 13.257 8.787 21.213 8.787s15.587-3.161 21.213-8.787l128.186-128.186c-8.133-19.127-19.282-36.661-32.849-52.006z" fill="#e9edf5"/></g></g></svg>